<svg width="72" height="72" viewBox="0 0 72 72" fill="none" xmlns="http://www.w3.org/2000/svg">
<rect width="72" height="72" rx="24" fill="#FF861A"/>
<rect x="1" y="1" width="70" height="70" rx="23" stroke="#ECEDEE" stroke-opacity="0.3" stroke-width="2"/>
<path d="M31.2711 41.4431L52.7143 20M31.2711 41.4431L38.094 55.0888C38.1795 55.2754 38.3168 55.4336 38.4896 55.5445C38.6624 55.6553 38.8633 55.7143 39.0686 55.7143C39.2739 55.7143 39.4749 55.6553 39.6477 55.5445C39.8205 55.4336 39.9578 55.2754 40.0433 55.0888L52.7143 20M31.2711 41.4431L17.6255 34.6203C17.4389 34.5348 17.2807 34.3975 17.1698 34.2247C17.0589 34.0519 17 33.8509 17 33.6456C17 33.4403 17.0589 33.2394 17.1698 33.0666C17.2807 32.8938 17.4389 32.7565 17.6255 32.6709L52.7143 20" stroke="white" stroke-width="2" stroke-linecap="round" stroke-linejoin="round"/>
</svg>
